<svg width="513" height="614" viewBox="0 0 513 614" fill="none" xmlns="http://www.w3.org/2000/svg">
    <rect width="513" height="614" fill=""/>
    <path fill-rule="evenodd" clip-rule="evenodd" d="M306.219 53.1346C426.152 53.1346 451.402 252.069 451.892 253.705C452.398 255.392 452.875 257.128 453.335 258.813C454.27 262.234 455.474 265.529 456.409 268.928C456.982 271.001 458.034 272.719 458.739 274.677C460.107 278.419 461.782 281.988 463.741 285.333C464.55 286.658 465.186 288.123 465.626 289.676C465.936 290.864 466.961 291.181 467.404 292.23C468.12 293.928 469.075 295.48 469.901 297.11C470.09 297.684 470.522 298.091 471.032 298.176L470.871 299.795C471.17 300.378 471.272 299.59 471.585 299.729C471.977 300.36 472.536 300.922 472.593 301.883C472.645 302.787 473.527 302.872 473.828 303.661C474.49 305.372 476.329 306.245 476.302 308.491C477.625 309.484 478.275 311.191 479.273 312.529C479.786 313.145 480.098 313.957 480.157 314.819L480.166 315.018C480.159 315.875 481.541 315.683 481.169 316.852C483.285 318.752 483.835 321.858 484.952 324.431C486.744 328.559 488.81 332.547 490.027 337.068C490.636 339.329 491.818 341.468 492.475 343.758C493.953 348.905 495.727 353.94 496.688 359.3C497.084 361.514 497.893 363.623 498.272 365.844L498.709 368.41C499.36 372.261 499.977 376.121 500.387 380.024C500.597 380.904 500.597 381.838 500.386 382.718C500.033 383.72 500.97 384.362 501.046 385.367C501.14 386.559 500.742 387.688 501.028 388.954C501.186 389.651 501.029 390.772 501.21 391.581C501.799 394.213 501.053 396.926 501.694 399.54C501.795 400.55 501.706 401.574 501.434 402.538C500.991 405.755 501.802 409.041 500.993 412.182C500.614 413.732 500.541 415.364 500.78 416.949L500.88 417.561C500.951 418.014 500.999 418.455 500.813 418.76C500.076 419.966 500.265 421.389 500.119 422.708L500.091 422.927C499.879 424.405 500.097 425.954 499.724 427.459C499.215 428.933 498.93 430.503 498.88 432.096C499.069 434.798 498.309 437.223 497.843 439.731C497.611 440.984 497.803 442.474 496.651 443.406C496.065 443.88 497.448 444.801 496.609 445.495L496.511 445.568C495.895 445.984 495.922 446.655 496.095 447.458C496.254 448.193 495.182 448.701 495.489 449.452C495.795 450.204 495.934 451.298 495.575 451.436C494.679 451.788 495.591 452.954 494.838 453.175C494.764 453.223 494.713 453.31 494.7 453.409C494.443 456.231 492.925 458.547 492.55 461.368C492.265 463.052 491.717 464.657 490.934 466.098C490.286 467.489 489.735 468.942 489.287 470.441C488.445 472.963 487.004 475.069 486.192 477.579C485.972 478.258 484.501 478.031 485.249 479.425C484.391 479.787 484.652 480.851 484.307 481.515C483.927 482.017 483.485 482.446 482.995 482.786C482.678 484.28 482.071 485.664 481.224 486.825C479.742 489.418 478.125 491.897 476.382 494.246L474.942 496.176C473.017 498.749 471.03 501.266 468.494 503.04C467.842 503.496 468.139 504.361 467.602 504.83C464.493 507.577 461.628 510.694 458.09 512.777C456.609 513.649 455.34 515.198 453.827 516.107C450.958 517.829 448.294 519.975 445.226 521.317L444.681 521.545C442.726 522.323 440.803 523.503 438.819 524.359C434.744 526.275 430.491 527.598 426.152 528.299L423.475 528.654C421.095 528.969 418.713 529.258 416.309 529.337C415.171 529.374 414.08 528.943 413.039 529.099C412.024 529.252 410.995 529.153 410.014 528.807C409.239 528.548 408.584 529.345 407.75 528.916C407.109 528.437 406.316 528.365 405.626 528.715L405.489 528.791C405.094 529.065 404.316 528.558 403.713 528.395C402.834 528.249 401.97 527.993 401.136 527.633C400.49 527.275 399.665 528.425 399.215 527.203C398.397 527.962 342.833 512.159 291.792 544.251C287.635 547.546 282.772 548.994 278.33 551.554C276.265 552.746 273.944 553.291 271.722 554.105L271.247 554.284C267.324 555.802 263.3 556.837 259.283 557.919C255.592 558.876 251.852 559.541 248.087 559.911C245.381 560.204 242.662 560.34 239.962 560.693C238.867 560.835 237.793 559.912 236.722 560.705C234.315 559.921 231.788 560.873 229.387 559.987C227.791 560.552 226.291 559.851 224.823 559.333C223.703 558.936 222.648 559.761 221.516 559.176C220.486 558.533 219.333 558.226 218.172 558.287C216.244 558.64 214.567 557.794 212.811 557.347C208.732 556.307 204.667 555.183 200.617 553.975C199.291 553.578 197.801 553.731 196.664 552.517C195.668 551.452 194.094 552.119 193.115 550.861C192.757 550.403 192.301 551.291 191.763 550.945C190.713 550.269 189.363 550.715 188.381 549.497C187.655 548.595 186.283 549.205 185.478 548.117L185.372 547.958C184.897 547.168 183.643 549.029 183.272 547.271C181.775 547.133 180.533 546.156 179.199 545.487C178.095 544.934 176.791 545.246 175.793 544.094C174.944 543.113 173.338 543.835 172.602 542.364C170.801 542.346 169.473 540.733 167.757 540.309C166.455 539.9 165.204 539.284 164.038 538.478C162.191 537.34 160.314 536.268 158.424 535.252C157.746 534.875 157.085 534.453 156.446 533.988C156.088 533.738 156.001 533.182 155.489 533.047C152.247 532.187 149.521 529.927 146.752 527.949C145.173 526.972 143.663 525.846 142.235 524.582L141.762 524.156C141.344 523.725 140.476 523.513 140.108 522.915C139.084 521.25 137.551 520.435 136.162 519.435L135.931 519.266C135.149 518.714 134.437 518.029 133.819 517.232C133.702 517.08 133.654 516.751 133.53 516.715C131.224 516.033 129.847 513.753 128.084 512.159C126.567 510.789 125.24 509.119 123.746 507.723L123.177 507.213C119.682 504.22 81.4309 453.844 77.0966 445.151L75.8563 442.663C74.6176 440.17 73.3933 437.659 72.266 435.099L71.306 432.919C70.3476 430.734 69.4041 428.534 68.5701 426.296L67.4542 423.308C65.2278 417.329 63.0492 411.32 61.1923 405.148C59.5365 399.64 58.1657 394.042 56.7819 388.44C55.8955 384.843 55.1465 381.229 54.5137 377.564C53.5028 371.707 52.6014 365.826 51.8094 359.922C51.0707 354.362 51.3439 348.721 50.3575 343.224C51.0038 339.849 49.8156 336.423 50.5534 333.051C50.0061 331.387 50.4873 329.659 50.5388 328.018C50.5915 326.324 50.274 324.549 50.8393 322.832C51.0982 322.052 50.4996 321.115 50.824 320.162C51.18 319.37 51.2211 318.429 50.936 317.596C51.8971 317.067 50.7515 316.253 51.1506 315.5C51.5809 314.683 51.771 313.717 51.6909 312.756C51.411 310.605 52.4462 308.619 52.2644 306.676C52.0749 304.688 52.8949 303.004 52.8923 301.223L52.8818 300.888C52.7403 298.55 54.1368 296.789 54.1834 294.577C54.1878 294.383 54.57 294.205 54.7796 294.012C54.7123 293.515 54.2526 293.627 53.9265 293.24C54.4471 292.7 54.9026 292.075 55.2801 291.385C55.5659 290.439 55.7688 289.46 55.8857 288.464L54.5618 286.42C55.0503 285.251 54.88 284.188 55.5322 283.271C55.8161 282.87 55.6578 281.646 55.6929 280.8C55.7391 279.69 56.9312 279.029 56.6437 278.152C56.4218 277.143 56.4937 276.074 56.8474 275.121C58.553 266.121 60.2903 257.131 62.0593 248.149C62.2454 247.186 62.0835 245.975 63.0734 245.411C61.9917 244.074 63.6904 243.608 63.7168 242.548C63.8547 241.558 64.1736 240.616 64.6507 239.789C65.3264 238.243 65.3885 236.324 65.7734 234.581C65.8747 233.349 66.2646 232.177 66.8982 231.197C67.5572 230.381 67.4622 228.958 67.9584 227.811C68.6594 226.426 69.2026 224.935 69.5739 223.378C69.6857 222.259 70.0584 221.2 70.6495 220.321C71.1743 219.628 70.7432 218.192 71.7634 217.669C72.0495 215.656 73.0536 214.04 73.7969 212.276L73.933 211.944C75.7589 207.406 77.8112 203.003 80.0787 198.758C81.9625 195.186 83.7956 191.577 85.7082 188.027C86.3304 186.881 86.992 185.74 87.6763 184.652C90.0531 180.651 92.6134 176.811 95.3452 173.148C97.8437 169.979 100.225 166.668 102.849 163.62C104.243 161.999 105.385 160.009 106.739 158.287C109.929 154.223 113.206 150.269 116.652 146.516C119.562 143.075 122.745 139.979 126.155 137.271C127.082 136.596 127.845 135.607 128.74 134.86C129.826 134.144 130.869 133.336 131.86 132.443C133.012 131.146 134.427 130.32 135.591 129.119C136.495 128.186 137.94 128.718 138.587 127.04C139.059 125.819 140.823 126.267 141.418 124.84C143.047 124.776 143.807 122.888 145.287 122.267L145.484 122.194C147.042 121.685 148.373 120.179 149.803 119.111C151.182 117.943 152.625 116.885 154.122 115.947C156.934 114.432 159.36 112.123 162.108 110.558C164.728 109.068 167.086 106.886 169.943 106.055C170.619 105.86 170.493 105.147 170.957 104.843C171.441 104.525 171.97 104.736 172.407 104.369C174.214 102.958 186.287 53.1346 306.219 53.1346Z" fill="#E4651D"/>
    <path fill-rule="evenodd" clip-rule="evenodd" d="M170.934 159.929C166.922 162.638 161.048 159.182 160.389 153.726C162.948 153.562 165.683 153.323 167.706 151.441C169.729 149.558 170.437 145.389 168.409 143.514C151.902 141.088 135.843 134.375 121.663 123.973C131.345 120.481 139.677 113.115 148.771 107.822C157.866 102.53 168.866 99.4 177.937 104.751C186.843 110.006 197.096 103.303 206.39 99.1192C222.552 91.8435 241.083 92.4535 256.886 100.781C268.415 106.857 287.952 96.9952 300.407 94.7335C320.751 91.039 340.612 108.105 361.041 105.15C358.849 106.884 356.657 108.618 354.466 110.353C356.624 110.117 358.794 110.021 360.961 110.067C344.007 119.777 327.054 129.487 310.1 139.197C314.395 141.277 318.69 143.356 322.985 145.435C321.975 149.309 318.356 151.926 315.021 151.192C317.704 153.748 320.387 156.304 323.071 158.86C320.207 161.295 316.581 162.413 313.091 161.939C316.808 164.812 319.877 168.877 321.889 173.594C330.745 170.063 340.446 169.628 349.498 172.357C341.32 173.64 333.141 174.923 324.963 176.207C326.198 180.231 327.433 184.256 328.668 188.281C339.352 185.354 350.707 186.019 361.101 190.181C350.794 190.495 340.487 190.809 330.18 191.123C329.939 207.49 323.131 224.181 311.177 232.135C299.223 240.089 275.336 247.161 267.424 224.002C261.367 228.761 261.796 240.198 266.114 247.161C270.433 254.124 277.295 257.977 283.5 262.454C304.113 277.322 319.66 301.945 325.984 329.738C332.307 357.531 329.339 388.189 317.871 413.513C333.332 416.39 347.698 426.921 356.865 442.097C376.607 431.103 387.54 406.017 402.662 387.267C419.864 365.937 443.609 352.341 468.279 349.697C482.875 348.133 499.521 351.502 508.035 365.777C519.101 384.333 508.898 413.184 491.234 421.714C477.231 428.475 461.438 425.075 446.376 426.352C416.089 428.921 389.499 450.296 364.525 470.965C363.507 477.657 365.551 484.902 369.751 489.485C378.684 478.433 389.953 470.107 402.211 465.501C406.742 463.798 413.533 464.242 414.037 469.894C414.227 472.033 413.287 474.062 412.336 475.888C404.163 491.568 392.64 504.724 379.167 513.755C372.056 518.521 364.109 522.216 355.971 521.67C347.834 521.124 339.547 515.503 336.783 506.325C335.502 502.073 335.363 497.15 332.937 493.685C328.834 487.823 320.951 489.578 315.198 492.908C309.446 496.238 303.314 500.766 297.141 498.79C281.71 493.85 265.651 491.732 249.691 492.531C229.367 493.549 208.658 499.213 188.966 493.103C182.388 491.063 175.026 487.844 169.199 492.028C157.714 500.274 165.461 526.67 153.679 534.291C149.505 536.99 144.391 535.995 139.786 534.627C119.44 528.583 100.356 516.547 84.6874 499.878C83.1774 498.271 81.6216 496.467 81.1983 494.102C79.9286 487.01 88.6753 484.06 94.6352 485.373C104.759 487.603 114.442 492.654 122.699 500.012C125.593 502.591 129.997 499.582 131.223 495.52C132.449 491.458 131.606 486.985 131.127 482.704C128.104 455.665 142.277 427.238 163.594 417.582C150.688 395.04 145.78 366.157 150.305 339.372C154.83 312.586 168.727 288.254 187.936 273.484C195.61 267.583 204.427 262.757 209.318 253.542C214.208 244.327 212.062 228.868 203.115 226.744C194.685 237.67 180.974 242.292 169.019 238.236C157.064 234.181 147.419 221.635 145.033 207.039C137.098 210.247 129.163 213.454 121.228 216.662C128.271 210.165 136.612 205.699 145.352 203.742C146.191 199.392 147.03 195.042 147.869 190.692C132.728 189.523 117.374 192.505 103.319 199.345C111.968 191.553 122.972 187.594 133.777 188.386C144.767 189.192 155.938 182.756 162.267 171.973C158.307 170.306 154.748 167.298 152.112 163.389C156.15 160.765 161.042 160.085 165.475 161.531M248.606 445.239C247.885 446.079 247.11 447.076 247.161 448.279C247.211 449.481 248.719 450.378 249.238 449.348C252.076 443.722 257.01 439.677 262.418 438.544C267.827 437.411 273.616 439.209 277.881 443.347C279.369 444.79 280.697 446.516 282.398 447.572C283.01 447.952 284.057 447.962 284.082 447.137C284.091 446.866 283.961 446.62 283.834 446.396C280.771 440.992 276.191 436.845 271.014 434.786C266.477 432.981 261.218 432.867 257.16 435.894C255.686 436.993 254.429 438.455 253.184 439.905C251.658 441.683 250.132 443.461 248.606 445.239ZM226.599 435.408C220.724 434.478 214.398 436.838 210.486 442.166C209.796 443.105 209.169 444.162 208.932 445.379C208.695 446.597 208.918 448.006 209.706 448.827C212.732 443.199 218.11 439.488 223.696 439.172C229.281 438.857 234.928 441.946 238.383 447.207C238.924 448.03 239.439 448.929 240.206 449.432C240.973 449.935 242.09 449.87 242.557 448.985C243.114 447.929 242.44 446.577 241.752 445.636C237.848 440.299 232.474 436.338 226.599 435.408ZM268.042 428.209C267.951 429.398 269.264 430.137 270.207 429.748C271.15 429.359 271.775 428.319 272.407 427.395C277.659 419.706 287.661 417.39 294.93 422.178C295.884 421.214 295.938 419.366 295.3 418.082C294.662 416.798 293.497 416.01 292.308 415.555C289.733 414.57 286.937 414.906 284.288 415.548C278.016 417.066 271.682 420.625 268.385 427.188C268.226 427.505 268.071 427.84 268.042 428.209ZM243.388 453.153C240.811 453.367 238.288 454.184 235.875 455.289C232.54 456.817 229.257 459.042 227.305 462.621C230.168 463.59 232.912 461.036 235.527 459.337C241.393 455.527 249.002 455.921 254.571 460.323C256.319 461.704 258.564 463.488 260.267 462.031C256.281 456.05 249.764 452.623 243.388 453.153ZM253.976 451.225C255.931 450.005 257.494 448.025 259.433 446.77C262.104 445.041 265.431 444.841 268.232 446.242C269.754 447.003 271.1 448.192 272.599 449.014C274.099 449.835 275.884 450.262 277.377 449.426C277.543 449.333 277.715 449.211 277.785 449.008C277.898 448.679 277.696 448.325 277.501 448.057C274.159 443.491 268.922 441.018 263.876 441.62C258.83 442.223 254.105 445.887 251.583 451.153C252.109 451.983 253.205 451.706 253.976 451.225ZM214.826 451.442C215.873 450.729 216.692 449.628 217.65 448.753C219.565 447.002 222.06 446.196 224.453 446.529C227.12 446.9 229.526 448.589 231.731 450.422C232.377 450.958 233.035 451.522 233.8 451.735C234.565 451.947 235.476 451.717 235.909 450.932C236.337 450.156 236.165 449.074 235.707 448.323C235.249 447.572 234.561 447.078 233.891 446.608C231.164 444.694 228.283 442.781 225.126 442.586C221.181 442.342 217.513 444.804 214.101 447.187C212.717 448.153 211.128 449.618 211.421 451.503C212.368 452.394 213.778 452.155 214.826 451.442ZM232.595 433.136C233.308 434.239 234.702 433.057 235.489 432.028C237.911 428.861 241.403 426.899 244.987 426.693C248.57 426.487 252.203 428.039 254.868 430.915C255.54 431.64 256.249 432.497 257.153 432.526C258.058 432.556 258.873 431.045 258.155 430.385C254.314 426.852 249.844 423.965 245.01 423.584C240.176 423.202 234.966 425.798 232.728 430.941C232.428 431.63 232.199 432.522 232.595 433.136ZM275.336 432.169C275.974 431.846 276.442 431.189 276.93 430.601C280.649 426.123 286.951 425.122 291.517 428.284C292.66 429.075 294.377 429.947 295.041 428.582C295.594 427.444 294.608 426.119 293.667 425.436C287.525 420.978 278.769 422.676 274.117 429.228C273.643 429.895 273.188 430.81 273.514 431.595C273.822 432.337 274.698 432.492 275.336 432.169ZM278.732 432.59C278.468 432.854 278.205 433.15 278.093 433.54C277.783 434.628 278.888 435.647 279.846 435.556C280.804 435.464 281.618 434.728 282.488 434.237C284.607 433.041 287.153 433.326 289.304 434.438C290.155 434.877 290.979 435.446 291.896 435.611C292.813 435.776 293.882 435.412 294.299 434.422C290.654 429.014 283.187 428.135 278.732 432.59ZM221.099 430.515C221.643 430.82 222.385 430.762 222.735 430.177C223.211 429.382 222.701 428.299 222.196 427.53C220.485 424.927 218.645 422.364 216.293 420.618C213.942 418.871 210.98 418.031 208.361 419.102C208.095 420.259 209.299 421.046 210.246 421.441C213.894 422.963 217.205 425.627 219.76 429.095C220.157 429.634 220.555 430.209 221.099 430.515ZM253.334 433.42C249.029 430.134 243.153 430.076 238.804 433.277C238.048 433.834 237.271 434.615 237.213 435.675C237.154 436.735 238.356 437.719 238.953 436.932C241.355 433.762 245.746 433.104 248.727 435.468C250.191 436.628 252.293 436.47 253.624 435.099C254.252 435.021 253.867 433.827 253.334 433.42ZM284.65 451.2C278.533 450.706 272.841 455.013 268.401 460.073C268.724 460.967 269.827 460.73 270.574 460.343C275.63 457.724 280.686 455.105 285.742 452.486C286.123 451.884 285.279 451.251 284.65 451.2ZM226.435 454.46C227.187 454.971 227.924 455.665 228.788 455.666C229.653 455.667 230.51 454.421 229.962 453.62C228.235 451.1 225.52 449.593 222.797 449.643C220.073 449.693 217.399 451.298 215.737 453.881C215.941 454.82 216.901 455.252 217.703 455.111C218.505 454.971 219.212 454.431 219.955 454.045C222.012 452.978 224.484 453.137 226.435 454.46ZM256.766 453.772C256.698 454.493 257.38 455.045 257.985 455.005C258.59 454.965 259.122 454.542 259.653 454.192C261.881 452.723 264.625 452.422 267.039 453.381C268.586 453.996 270.517 455.001 271.633 453.579C271.731 452.767 271.05 452.155 270.445 451.769C268.277 450.388 265.889 449.347 263.433 449.374C260.977 449.401 258.443 450.634 257.04 453.048C256.912 453.268 256.792 453.506 256.766 453.772ZM252.201 422.14C254.729 423.224 257.084 424.884 259.102 427.006C259.933 427.88 260.73 428.85 261.739 429.395C262.747 429.941 264.057 429.955 264.847 429.026C263.1 427.422 261.664 425.334 260.685 422.973C260.158 421.701 258.752 421.469 257.567 421.399C255.836 421.298 254.104 421.196 252.372 421.095C252.19 421.39 252.125 421.784 252.201 422.14ZM229.615 429.417C230.509 428.418 231.169 427.158 231.995 426.078C233.276 424.403 234.963 423.179 236.796 422.594C237.587 422.341 238.626 421.857 238.507 420.888C236.267 420.422 233.71 420.046 231.944 421.759C229.469 424.159 227.507 427.31 226.293 430.834C227.488 431.15 228.721 430.417 229.615 429.417ZM209.7 428.204C211.306 429.456 212.911 430.708 214.517 431.96C215.197 432.49 216.065 433.033 216.77 432.553C217.424 432.107 217.524 430.959 217.183 430.156C216.842 429.353 216.191 428.815 215.567 428.312C214.26 427.258 212.953 426.205 211.645 425.151C210.551 424.269 208.767 423.566 208.172 424.975C207.659 426.191 208.747 427.46 209.7 428.204ZM243.506 443.256C244.12 443.985 244.981 444.774 245.761 444.326C246.117 444.122 246.346 443.703 246.557 443.304C247.253 441.987 247.949 440.671 248.645 439.354C246.823 436.929 243.246 436.864 241.363 439.222C241.218 439.403 241.077 439.611 241.051 439.859C241.01 440.254 241.265 440.594 241.5 440.874C242.169 441.668 242.837 442.462 243.506 443.256ZM215.409 462.083C216.715 462.631 218.256 462.794 219.408 461.876C217.674 459.489 215.642 457.414 213.401 455.74C212.765 455.265 212.048 454.806 211.306 454.932C210.564 455.059 209.907 456.069 210.266 456.856C211.369 459.272 213.239 461.172 215.409 462.083ZM287.046 442.902C287.663 442.009 288.28 441.117 288.897 440.225C289.11 439.917 289.334 439.57 289.321 439.171C289.304 438.666 288.917 438.301 288.548 438.053C287.266 437.19 285.752 436.83 284.291 437.04C283.733 437.12 283.151 437.303 282.758 437.785C282.365 438.267 282.252 439.123 282.647 439.602C283.543 440.689 284.439 441.775 285.335 442.861C285.627 443.216 285.998 443.601 286.406 443.495C286.675 443.425 286.871 443.156 287.046 442.902ZM222.658 423.622C223.212 424.335 223.907 425.065 224.717 424.985C226.455 424.813 227.016 421.224 228.752 421.42C229.218 420.5 227.946 419.765 227.047 419.748C224.722 419.704 222.396 419.659 220.071 419.615C220.83 421.041 221.697 422.383 222.658 423.622ZM237.02 462.742C241.857 462.717 246.695 462.692 251.532 462.667C251.108 461.522 249.973 461.057 248.949 460.803C245.592 459.971 242.072 460.098 238.764 461.171C238.023 461.411 237.177 461.843 237.02 462.742ZM266.888 456.65C265.288 456.736 263.687 456.823 262.087 456.91C261.57 456.937 260.907 457.117 260.843 457.731C260.815 458.006 260.93 458.269 261.041 458.512C261.464 459.432 261.915 460.388 262.647 460.967C263.378 461.547 264.48 461.603 265.049 460.804C265.485 460.192 265.52 459.236 266.04 458.726C266.375 458.398 266.84 458.333 267.211 458.064C267.582 457.795 267.818 457.098 267.474 456.783C267.313 456.634 267.091 456.639 266.888 456.65ZM225.446 459.854C225.873 459.056 225.469 457.925 224.803 457.412C224.136 456.898 223.304 456.836 222.512 456.789C221.638 456.737 220.487 456.93 220.33 457.961C220.255 458.452 220.464 458.934 220.666 459.37C221.259 460.652 222.132 462.122 223.35 461.977C224.295 461.865 224.934 460.811 225.446 459.854ZM288.671 448.366C289.39 448.437 290.034 447.855 290.538 447.238C292.075 445.357 293.052 442.834 293.259 440.214C292.75 439.825 292.128 440.429 291.738 440.98C290.429 442.833 289.121 444.685 287.812 446.537C287.346 447.196 287.953 448.295 288.671 448.366ZM208.608 435.244C209.338 436.337 210.746 436.68 211.775 436.015C212.301 435.674 212.746 434.998 212.641 434.292C212.548 433.664 212.07 433.238 211.63 432.879C210.993 432.36 210.357 431.84 209.72 431.321C209.526 431.162 209.303 430.996 209.072 431.053C208.913 431.092 208.786 431.232 208.679 431.378C207.91 432.432 207.879 434.151 208.608 435.244ZM265.133 423.706C265.897 424.473 267.03 423.68 267.788 422.905C268.611 422.063 269.434 421.221 270.257 420.379C269.792 419.847 269.047 419.967 268.416 420.123C266.584 420.576 264.751 421.03 262.919 421.483C263.657 422.224 264.395 422.965 265.133 423.706ZM293.909 412.947C294.37 413.634 295.341 413.487 295.87 412.872C296.399 412.258 296.594 411.351 296.746 410.488C296.782 410.28 296.816 410.056 296.744 409.863C296.559 409.371 295.949 409.519 295.541 409.747C294.443 410.36 293.15 411.816 293.909 412.947Z" fill="white"/>
    <path fill-rule="evenodd" clip-rule="evenodd" d="M150.305 339.372C154.83 312.586 170.3 290.164 189.51 275.393C179.798 291.329 149.993 317.461 159.572 346.574C174.886 393.112 234.456 400.431 232.384 400.937C197.15 409.535 146.936 359.314 150.305 339.372Z" fill="#E7EAEE"/>
    <path fill-rule="evenodd" clip-rule="evenodd" d="M263.006 106.933C260.555 107.289 258.395 109.638 257.866 112.524C277.707 99.7562 301.672 96.4737 323.411 103.547C323.429 116.668 315.739 129.288 305.294 133.276L282.651 141.922C288.624 142.715 294.762 141.667 300.311 138.906C302.283 142.624 305.531 145.34 309.126 146.276L302.166 148.103C303.192 151.846 305.288 155.155 308.02 157.349C305.701 156.399 303.121 156.389 300.797 157.322L302.355 164.095C292.092 162.392 281.126 164.064 272.481 170.902C263.837 177.739 258.032 190.308 259.59 202.568C261.413 189.238 269.045 177.245 279.298 171.6C289.55 165.955 302.125 166.823 311.768 173.839L305.227 179.639C307.739 180.834 310.716 180.529 313.022 178.838C318.056 181.504 316.662 192.53 311.194 193.294L318.427 193.896C319.681 208.618 312.083 223.8 300.646 229.423C289.21 235.047 274.889 230.643 267.133 219.118C257.506 225.002 258.181 242.835 265.042 252.832C269.832 259.811 276.427 264.345 283.034 268.886C285.891 270.85 288.751 272.816 291.467 274.981C305.896 286.485 316.652 304.423 321.139 324.467C313.303 330.746 306.333 338.569 300.595 347.525C309.085 347.051 317.399 342.906 323.66 336.026L324.996 351.504C318.123 354.037 311.947 359.208 307.603 366.068C313.728 366.814 320.045 365.102 325.304 361.269C323.42 379.077 320.021 396.656 315.175 413.644L299.377 413.489C303.125 401.092 306.922 387.754 304.16 374.991C301.399 362.228 289.014 351.693 279.266 357.832C290.477 347.017 298.967 332.211 303.367 315.8L275.135 359.418L253.47 359.637C252.788 347.42 252.133 334.898 255.035 323.156C257.937 311.415 265.182 300.423 275.165 297.746C276.248 297.455 277.401 297.219 278.569 296.979L278.569 296.979L278.57 296.979C283.449 295.979 288.594 294.924 290.026 289.646C273.843 288.52 257.621 300.919 251.669 318.965C247.427 331.825 248.175 346.158 248.987 359.949C234.027 357.367 218.708 357.782 203.861 361.172C201.283 350.656 198.61 339.904 193.203 331.06C187.796 322.215 179.019 315.507 169.908 316.599C184.581 319.209 191.849 338.724 197.382 355.197C202.915 371.67 212.958 390.486 227.73 388.856C231.936 388.392 233.276 396.663 230.051 399.93C226.827 403.198 222.037 402.575 217.91 401.494C196.651 395.926 176.803 382.861 161.489 364.355C158.508 360.752 155.624 356.809 154.247 352.013C152.547 346.096 153.339 339.562 154.8 333.554C162.268 302.863 185.248 281.834 207.088 263.434C218.837 253.535 218.416 229.003 206.336 219.691C197.394 229.416 185.472 236.216 173.462 234.63C161.453 233.043 150.087 221.274 149.7 206.821C153.471 206.423 157.168 205.037 160.456 202.788C157.229 201.416 153.592 201.475 150.397 202.95C149.529 199.055 150.163 194.718 152.086 191.407L158.933 190.532C157.556 188.669 155.637 187.393 153.588 186.979C158.529 177.124 169.998 174.426 179.19 177.757C188.381 181.087 195.825 189.021 202.946 196.732C195.52 177.246 175.384 170.964 157.804 166.971L165.475 161.531C161.042 160.085 156.15 160.765 152.112 163.389C154.748 167.298 158.307 170.306 162.267 171.973C155.938 182.756 144.766 189.192 133.777 188.386C122.972 187.594 111.968 191.553 103.319 199.345C117.374 192.505 132.728 189.523 147.869 190.692L145.352 203.742C136.612 205.699 128.271 210.165 121.228 216.662L145.033 207.039C147.418 221.635 157.064 234.181 169.019 238.236C180.974 242.292 194.685 237.67 203.115 226.744C212.062 228.868 214.208 244.327 209.317 253.542C205.445 260.839 199.111 265.383 192.832 269.889L192.832 269.889L192.831 269.889L192.831 269.889L192.83 269.89C191.18 271.074 189.533 272.256 187.936 273.484C168.727 288.254 154.83 312.586 150.305 339.372C145.78 366.157 150.688 395.04 163.594 417.582C142.277 427.238 128.104 455.665 131.127 482.704C131.196 483.324 131.273 483.947 131.35 484.573C131.806 488.271 132.272 492.046 131.223 495.52C129.997 499.582 125.593 502.591 122.699 500.012C114.442 492.654 104.759 487.603 94.6352 485.373C88.6753 484.06 79.9286 487.01 81.1983 494.103C81.6216 496.467 83.1774 498.271 84.6874 499.878C100.356 516.547 119.44 528.583 139.786 534.627C144.391 535.995 149.505 536.99 153.678 534.291C159.62 530.448 160.595 521.83 161.575 513.173C162.538 504.663 163.506 496.116 169.199 492.028C174.339 488.337 180.674 490.407 186.612 492.347C187.405 492.606 188.191 492.863 188.966 493.103C203.084 497.484 217.726 495.812 232.374 494.14L232.374 494.14C238.156 493.48 243.939 492.819 249.691 492.531C265.651 491.732 281.71 493.85 297.141 498.79C302.516 500.51 307.859 497.3 312.948 494.244C313.704 493.79 314.454 493.339 315.198 492.908C320.951 489.578 328.834 487.823 332.937 493.685C334.56 496.003 335.159 498.973 335.762 501.959L335.762 501.959C336.06 503.437 336.359 504.918 336.783 506.325C339.546 515.503 347.834 521.124 355.971 521.67C364.109 522.216 372.056 518.521 379.167 513.755C392.64 504.724 404.163 491.568 412.336 475.888C413.287 474.062 414.227 472.033 414.037 469.894C413.533 464.242 406.742 463.798 402.211 465.501C389.953 470.107 378.684 478.433 369.751 489.485C365.551 484.902 363.507 477.657 364.525 470.965C389.499 450.296 416.089 428.921 446.376 426.352C451.125 425.949 455.946 426.012 460.761 426.074C471.218 426.209 481.646 426.344 491.234 421.714C508.898 413.184 519.101 384.333 508.034 365.777C499.521 351.502 482.875 348.133 468.279 349.698C443.609 352.342 419.864 365.937 402.662 387.267C397.883 393.193 393.522 399.752 389.169 406.299C379.749 420.467 370.367 434.577 356.865 442.097C347.698 426.921 333.332 416.39 317.871 413.513C329.339 388.189 332.307 357.531 325.984 329.738C319.66 301.945 304.113 277.322 283.5 262.454C282.378 261.644 281.234 260.855 280.087 260.064L280.087 260.064L280.087 260.064L280.087 260.064L280.086 260.063L280.086 260.063L280.086 260.063L280.086 260.063L280.085 260.063L280.085 260.062L280.085 260.062L280.085 260.062L280.085 260.062L280.084 260.062C274.894 256.48 269.651 252.863 266.114 247.161C261.796 240.198 261.367 228.761 267.424 224.002C275.479 237.232 292.383 240.089 304.337 232.135C316.291 224.181 323.099 207.49 323.34 191.123L354.261 190.181C343.867 186.02 332.512 185.354 321.828 188.281L318.123 176.207L342.658 172.357C333.606 169.628 323.905 170.063 315.049 173.594C313.037 168.877 309.968 164.812 306.25 161.939C309.741 162.413 313.367 161.295 316.231 158.86L308.181 151.192C311.515 151.926 315.135 149.309 316.145 145.435L303.26 139.197L354.121 110.067C351.954 110.021 349.784 110.117 347.626 110.353L354.2 105.15C344.162 106.602 334.262 103.22 324.373 99.8424C314.137 96.3461 303.915 92.8543 293.567 94.7335C289.501 95.4717 285.41 97.0196 281.343 98.5588C272.948 101.735 264.652 104.874 256.886 100.781C241.083 92.4535 222.552 91.8435 206.39 99.1192C204.961 99.7626 203.51 100.465 202.044 101.175L202.044 101.175L202.044 101.175L202.043 101.175C193.975 105.082 185.474 109.198 177.937 104.751C168.866 99.4 157.866 102.53 148.771 107.822C145.579 109.68 142.48 111.794 139.384 113.905L139.384 113.905C133.661 117.809 127.946 121.706 121.663 123.973C135.843 134.375 151.902 141.088 168.409 143.514C170.437 145.389 169.729 149.558 167.706 151.441C165.683 153.323 162.948 153.562 160.389 153.726C161.048 159.182 166.922 162.638 170.934 159.929C169.248 160.304 169.122 157.026 169.823 155.152L174.193 143.462C177.588 144.954 181.812 142.56 183 138.472C174.594 139.683 165.872 140.861 157.82 137.731C149.767 134.601 142.573 125.87 142.95 115.747C160.882 103.311 184.955 104.995 201.555 119.846C200.274 115.368 197.123 111.721 193.342 110.337C197.708 105.192 203.503 101.816 209.579 100.878C205.97 104.296 204.315 110.407 205.564 115.709L221.772 97.8682C219.113 103.573 217.624 110.052 217.47 116.581C223.481 111.88 228.27 104.973 231.022 97.0357L238.232 98.2473C233.818 102.711 231.359 109.803 231.836 116.696C237.33 112.608 241.589 106.197 243.678 98.8696C250.448 100.179 257.023 102.921 263.006 106.933ZM462.16 422.768H462.159H462.159H462.158H462.158H462.157H462.157H462.156H462.156H462.155H462.155H462.154H462.153H462.153H462.152H462.152H462.151H462.151H462.15H462.15H462.149H462.148H462.148H462.147H462.147H462.146H462.146H462.145H462.145H462.144H462.144H462.143H462.142H462.142H462.141C458.523 422.624 454.901 422.48 451.302 422.603C424.461 423.515 399.507 439.162 377.362 457.336C377.051 457.591 376.741 457.847 376.43 458.103C372.227 461.562 367.983 465.056 363.186 467.096L357.55 447.437C357.248 446.382 357.061 444.932 357.881 444.402C366.499 438.824 374.368 431.594 381.096 423.071C385.579 417.392 389.556 411.151 393.527 404.918C399.152 396.091 404.767 387.279 411.798 380.096C423.027 368.627 437.163 362.063 451.346 357.167C461.843 353.544 472.842 350.701 483.639 352.691C494.436 354.681 505.066 362.394 509.026 374.58C512.17 384.259 510.631 395.676 505.787 404.291C500.942 412.906 493.075 418.77 484.646 421.229C477.315 423.368 469.743 423.068 462.16 422.768ZM153.331 464.414C153.899 466.03 154.257 468.186 153.124 469.296C151.665 470.726 149.594 468.883 148.368 467.168L137.917 452.551C135.414 460.335 134.267 468.74 134.567 477.073C134.627 478.745 134.741 480.443 134.856 482.146L134.856 482.146L134.856 482.147C135.293 488.656 135.735 495.251 133.216 500.896C132.112 503.372 130.232 505.644 127.891 505.826C126.565 505.929 125.273 505.349 124.049 504.729C120.693 503.03 117.387 500.943 114.082 498.856C105.573 493.485 97.0714 488.117 87.7546 489.398C86.4823 489.573 84.8979 490.324 84.9475 491.856C84.9698 492.542 85.3436 493.131 85.7072 493.662C99.1398 513.297 120.146 522.819 140.48 530.008C143.806 531.183 147.311 532.328 150.697 531.436C154.084 530.543 157.227 526.888 156.818 522.767C155.736 511.862 158.591 500.479 164.511 492.09C166.874 488.741 169.862 485.76 173.449 484.869C177.853 483.774 182.159 485.946 186.398 488.085L186.399 488.085C187.488 488.635 188.573 489.182 189.654 489.671C197.941 493.421 207.257 493.831 215.752 490.818C212.431 490.766 210.836 485.999 210.147 482.11C205.688 456.914 203.317 431.189 203.081 405.435C203.055 402.635 201.414 400.159 199.434 398.666C197.758 397.402 195.848 396.699 193.947 396C193.603 395.874 193.259 395.747 192.917 395.617C185.998 392.994 179.478 388.87 173.77 383.505C173.05 382.829 172.342 382.132 171.633 381.435L171.633 381.435L171.633 381.435C169.448 379.286 167.262 377.135 164.754 375.595C161.432 373.555 157.321 372.723 153.992 374.746C153.249 376.864 154.592 379.325 156.31 380.348C157.612 381.122 159.07 381.332 160.524 381.542C160.99 381.609 161.456 381.676 161.916 381.762C164.104 382.169 166.234 383.021 168.186 384.273C170.237 385.587 172.179 389.057 170.351 390.78C169.602 391.486 168.551 391.436 167.6 391.353L156.868 390.409C159.485 398.928 162.82 407.131 166.807 414.851C167.165 415.544 167.643 416.314 168.324 416.322C178.838 416.435 190.578 418.197 197.241 427.932C198.504 429.777 199.54 432.444 198.457 434.446C192.35 425.62 182.796 420.363 173.223 420.561C163.649 420.758 154.253 426.407 148.403 435.48C153.566 439.616 157.67 445.619 160.036 452.494C160.751 454.57 160.619 457.966 158.743 457.919L147.478 441.41C146.975 440.673 146.37 439.872 145.574 439.843C144.936 439.819 144.374 440.308 143.868 440.773C142.772 441.781 141.635 442.85 141.063 444.355C140.491 445.861 140.704 447.933 141.896 448.771C146.974 452.341 151.049 457.916 153.331 464.414ZM281.766 490.25C289 483.027 291.36 471.133 293.303 460.1L300.422 419.669C300.498 419.237 300.585 418.779 300.845 418.465C301.187 418.051 301.725 418.006 302.212 417.989C315.188 417.519 329.003 418.999 339.455 428.216C335.191 430.747 331.463 434.561 328.711 439.21C327.939 440.514 327.294 442.476 328.288 443.543C328.66 443.944 329.18 444.085 329.679 444.128C332.171 444.34 334.446 442.478 336.267 440.431C336.66 439.99 337.045 439.534 337.431 439.077C338.835 437.414 340.245 435.745 342.027 434.768C344.298 433.524 347.453 433.873 348.706 436.459C344.655 438.928 341.318 443.037 339.369 447.952C338.862 449.232 338.442 450.711 338.853 452.039C339.264 453.368 340.881 454.147 341.676 453.097L349.501 442.757C349.88 442.257 350.406 441.708 350.935 441.939C351.221 442.064 351.408 442.387 351.571 442.695C355.719 450.484 357.367 459.553 359.023 468.661C359.992 473.995 360.964 479.342 362.441 484.453C363.625 488.548 365.911 493.148 369.531 493.151C371.532 493.153 373.302 491.68 374.886 490.216C376.579 488.652 378.263 487.012 379.956 485.363L379.956 485.363C387.914 477.611 396.054 469.684 406.076 468.734C407.656 468.585 409.684 469.002 410.054 470.846C410.27 471.917 409.788 472.995 409.308 473.935C401.858 488.53 390.683 500.038 378.338 508.652C372.018 513.063 365.087 516.85 357.771 516.918C350.455 516.986 342.708 512.509 339.944 504.402C339.38 502.748 339.035 501.002 338.69 499.258C338.291 497.24 337.893 495.225 337.157 493.356C335.26 488.54 331.056 485.151 326.614 484.856C322.385 484.576 318.496 486.83 314.615 489.08C313.252 489.871 311.889 490.661 310.514 491.34C301.381 495.848 290.642 495.441 281.766 490.25ZM233.474 403.208C230.751 405.99 227.088 407.1 223.517 407.414C217.085 407.979 210.521 406.176 204.937 402.312L207.241 412.749C207.34 413.199 207.459 413.684 207.771 413.961C208.042 414.201 208.401 414.232 208.738 414.253L241.841 416.335C246.667 416.638 251.499 416.942 256.33 416.775C269.88 416.306 283.328 412.073 295.317 404.502C296.008 404.065 296.713 403.6 297.211 402.879C297.805 402.019 298.04 400.892 298.238 399.802C299.917 390.583 300.208 381.005 299.091 371.665C298.817 369.371 298.435 367.019 297.357 365.093C296.28 363.168 294.342 361.76 292.44 362.194C272.958 366.634 253.071 365.262 233.186 363.891L233.185 363.891C225.691 363.374 218.197 362.857 210.725 362.652C209.391 362.615 207.987 362.607 206.815 363.371C205.644 364.135 204.837 365.949 205.439 367.374C208.846 375.443 215.887 380.592 223.186 382.914C223.709 383.08 224.243 383.243 224.784 383.408L224.79 383.41C229.512 384.847 234.713 386.43 236.427 391.691C237.728 395.683 236.197 400.427 233.474 403.208ZM286.586 471.593C285.25 477.939 282.443 484.522 277.35 486.902C275.568 487.735 273.639 487.983 271.734 488.195C254.075 490.161 236.228 489.688 218.659 486.785C217.613 486.613 216.511 486.402 215.695 485.599C214.702 484.621 214.366 483.002 214.106 481.494C213.308 476.874 212.69 472.209 212.254 467.52C212.177 466.689 212.369 465.504 213.065 465.569C224.307 466.616 235.581 467.166 246.857 467.217C254.635 467.253 262.475 467.043 270.072 465.043C277.669 463.043 285.075 459.135 290.629 452.617C289.05 456.585 288.371 460.92 287.69 465.262C287.357 467.384 287.024 469.509 286.586 471.593ZM248.606 445.239C247.885 446.079 247.11 447.076 247.161 448.278C247.211 449.481 248.719 450.378 249.238 449.348C252.076 443.722 257.01 439.677 262.418 438.544C267.827 437.411 273.616 439.209 277.881 443.347C278.324 443.777 278.753 444.232 279.182 444.686L279.182 444.686C280.193 445.759 281.204 446.83 282.398 447.572C283.01 447.952 284.057 447.962 284.082 447.137C284.091 446.866 283.961 446.62 283.834 446.396C280.771 440.992 276.191 436.845 271.014 434.786C266.477 432.981 261.218 432.867 257.16 435.894C255.686 436.993 254.429 438.455 253.184 439.905L248.606 445.239ZM210.486 442.166C214.398 436.838 220.724 434.478 226.599 435.408C232.474 436.338 237.848 440.299 241.752 445.636C242.44 446.577 243.114 447.929 242.557 448.985C242.09 449.87 240.973 449.935 240.206 449.432C239.537 448.993 239.059 448.253 238.59 447.525C238.521 447.418 238.452 447.312 238.383 447.207C234.928 441.946 229.281 438.857 223.696 439.172C218.11 439.488 212.732 443.199 209.706 448.827C208.918 448.006 208.695 446.597 208.932 445.379C209.169 444.162 209.796 443.105 210.486 442.166ZM268.042 428.209C267.951 429.398 269.264 430.137 270.207 429.748C271.056 429.398 271.647 428.521 272.217 427.675C272.281 427.581 272.344 427.487 272.407 427.395C277.659 419.706 287.661 417.39 294.93 422.178C295.884 421.214 295.938 419.366 295.3 418.082C294.662 416.798 293.497 416.01 292.308 415.555C289.733 414.57 286.937 414.906 284.288 415.548C278.016 417.066 271.682 420.625 268.385 427.188C268.226 427.505 268.071 427.84 268.042 428.209ZM235.875 455.289C238.288 454.184 240.811 453.367 243.388 453.153C249.764 452.623 256.281 456.05 260.267 462.031C258.569 463.483 256.333 461.716 254.588 460.337L254.571 460.323C249.002 455.921 241.393 455.527 235.527 459.337C235.069 459.635 234.607 459.958 234.142 460.284C231.948 461.822 229.667 463.421 227.305 462.62C229.257 459.042 232.54 456.817 235.875 455.289ZM253.976 451.225C254.976 450.601 255.874 449.778 256.771 448.955C257.628 448.169 258.486 447.383 259.433 446.77C262.104 445.041 265.43 444.841 268.232 446.242C269.05 446.651 269.817 447.183 270.584 447.716C271.245 448.175 271.906 448.634 272.599 449.014C274.099 449.835 275.884 450.262 277.377 449.425C277.543 449.333 277.715 449.21 277.785 449.008C277.898 448.679 277.696 448.325 277.501 448.057C274.159 443.491 268.922 441.017 263.876 441.62C258.83 442.223 254.105 445.887 251.583 451.153C252.109 451.983 253.205 451.706 253.976 451.225ZM216.621 449.79C216.052 450.393 215.484 450.994 214.826 451.442C213.778 452.155 212.368 452.394 211.421 451.503C211.128 449.618 212.717 448.153 214.101 447.187C217.513 444.804 221.181 442.342 225.126 442.586C228.283 442.781 231.164 444.694 233.891 446.608C234.561 447.078 235.249 447.572 235.707 448.323C236.165 449.074 236.337 450.156 235.909 450.932C235.476 451.717 234.565 451.947 233.8 451.735C233.063 451.53 232.426 451 231.804 450.482L231.731 450.422C229.526 448.589 227.12 446.9 224.453 446.529C222.06 446.196 219.565 447.002 217.65 448.753C217.294 449.078 216.958 449.434 216.622 449.79L216.621 449.79ZM232.595 433.136C233.308 434.239 234.702 433.057 235.489 432.028C237.911 428.86 241.403 426.899 244.987 426.693C248.57 426.487 252.203 428.039 254.868 430.915C254.922 430.973 254.976 431.033 255.031 431.092C255.656 431.773 256.322 432.499 257.153 432.526C258.058 432.556 258.873 431.044 258.155 430.385C254.314 426.852 249.844 423.965 245.01 423.584C240.176 423.202 234.966 425.798 232.728 430.941C232.428 431.629 232.199 432.522 232.595 433.136ZM276.714 430.866C276.3 431.376 275.88 431.894 275.336 432.169C274.698 432.492 273.822 432.337 273.514 431.594C273.188 430.81 273.643 429.895 274.117 429.228C278.769 422.676 287.525 420.978 293.667 425.436C294.608 426.119 295.594 427.444 295.041 428.582C294.377 429.947 292.66 429.075 291.517 428.284C286.951 425.122 280.65 426.123 276.93 430.601C276.858 430.688 276.786 430.777 276.714 430.866ZM278.732 432.59C278.468 432.854 278.205 433.15 278.093 433.539C277.783 434.628 278.888 435.647 279.846 435.556C280.539 435.49 281.158 435.085 281.776 434.681C282.012 434.527 282.247 434.373 282.488 434.237C284.607 433.041 287.153 433.326 289.304 434.438C289.468 434.522 289.63 434.611 289.793 434.702L289.91 434.767L289.913 434.768C290.555 435.126 291.199 435.485 291.896 435.611C292.812 435.776 293.882 435.412 294.299 434.421C290.654 429.014 283.187 428.135 278.732 432.59ZM222.735 430.177C222.385 430.761 221.643 430.82 221.099 430.515C220.593 430.231 220.214 429.714 219.844 429.21L219.76 429.095C217.205 425.627 213.894 422.963 210.246 421.441C209.299 421.045 208.095 420.259 208.361 419.102C210.98 418.031 213.942 418.871 216.293 420.618C218.645 422.364 220.485 424.927 222.196 427.53C222.701 428.299 223.211 429.382 222.735 430.177ZM253.334 433.42C249.029 430.134 243.154 430.076 238.804 433.277C238.048 433.834 237.272 434.615 237.213 435.675C237.154 436.735 238.356 437.719 238.953 436.932C241.355 433.762 245.746 433.104 248.727 435.468C250.191 436.628 252.293 436.47 253.624 435.099C254.252 435.021 253.867 433.827 253.334 433.42ZM268.401 460.073C272.841 455.013 278.533 450.706 284.65 451.2C285.279 451.251 286.123 451.884 285.743 452.486L270.574 460.343C269.827 460.73 268.724 460.967 268.401 460.073ZM226.435 454.46C226.584 454.562 226.732 454.67 226.882 454.779C227.484 455.219 228.095 455.665 228.788 455.666C229.653 455.667 230.51 454.42 229.962 453.62C228.235 451.1 225.52 449.593 222.797 449.643C220.073 449.693 217.399 451.298 215.737 453.881C215.941 454.819 216.901 455.252 217.703 455.111C218.281 455.01 218.81 454.701 219.338 454.392C219.543 454.272 219.748 454.153 219.955 454.045C222.012 452.978 224.484 453.137 226.435 454.46ZM257.985 455.005C257.38 455.045 256.698 454.493 256.766 453.772C256.792 453.506 256.913 453.268 257.04 453.048C258.443 450.634 260.977 449.401 263.433 449.374C265.889 449.347 268.277 450.388 270.445 451.769C271.05 452.155 271.731 452.767 271.633 453.579C270.628 454.859 268.964 454.172 267.513 453.574C267.435 453.542 267.357 453.51 267.28 453.478L267.163 453.431L267.083 453.398L267.039 453.381C264.625 452.422 261.881 452.723 259.653 454.192C259.577 454.242 259.501 454.293 259.425 454.345L259.423 454.346C258.967 454.656 258.503 454.971 257.985 455.005ZM252.201 422.14C254.729 423.224 257.084 424.884 259.102 427.006C259.242 427.154 259.382 427.304 259.522 427.455C260.209 428.196 260.9 428.942 261.739 429.395C262.747 429.941 264.057 429.955 264.847 429.026C263.1 427.422 261.664 425.334 260.685 422.973C260.158 421.701 258.752 421.469 257.567 421.399L252.372 421.095C252.19 421.39 252.125 421.784 252.201 422.14ZM231.03 427.475C230.585 428.153 230.141 428.83 229.615 429.417C228.721 430.417 227.488 431.15 226.293 430.834C227.507 427.31 229.469 424.159 231.944 421.759C233.71 420.046 236.267 420.422 238.507 420.888C238.626 421.857 237.587 422.341 236.796 422.594C234.963 423.179 233.276 424.403 231.995 426.078C231.654 426.523 231.342 426.999 231.03 427.474L231.03 427.475ZM209.7 428.204L214.517 431.96C215.197 432.49 216.064 433.033 216.77 432.553C217.424 432.107 217.524 430.959 217.183 430.156C216.842 429.353 216.191 428.815 215.567 428.312L211.645 425.151C210.551 424.269 208.768 423.566 208.172 424.975C207.659 426.191 208.747 427.46 209.7 428.204ZM245.761 444.326C244.981 444.774 244.12 443.985 243.506 443.256L241.5 440.874C241.265 440.594 241.01 440.254 241.051 439.859C241.077 439.611 241.218 439.403 241.363 439.222C243.246 436.864 246.823 436.929 248.645 439.354L246.557 443.304C246.346 443.703 246.117 444.122 245.761 444.326ZM215.41 462.083C216.715 462.631 218.256 462.794 219.408 461.876C217.674 459.489 215.642 457.414 213.401 455.74C212.765 455.265 212.048 454.806 211.306 454.932C210.564 455.059 209.907 456.068 210.266 456.856C211.369 459.272 213.239 461.172 215.41 462.083ZM288.897 440.225L287.046 442.902C286.871 443.155 286.675 443.425 286.406 443.495C285.998 443.601 285.627 443.216 285.335 442.861L282.647 439.602C282.252 439.123 282.365 438.267 282.758 437.785C283.151 437.303 283.733 437.12 284.291 437.04C285.752 436.83 287.266 437.19 288.548 438.053C288.917 438.301 289.304 438.665 289.321 439.171C289.334 439.57 289.11 439.917 288.897 440.225ZM222.658 423.622C223.212 424.335 223.907 425.065 224.717 424.985C225.557 424.902 226.122 424.021 226.677 423.155C227.271 422.228 227.854 421.319 228.752 421.42C229.218 420.5 227.946 419.765 227.047 419.748L220.071 419.615C220.83 421.041 221.697 422.383 222.658 423.622ZM251.532 462.667L237.02 462.742C237.177 461.843 238.023 461.411 238.764 461.171C242.072 460.098 245.592 459.971 248.949 460.803C249.973 461.057 251.108 461.522 251.532 462.667ZM266.888 456.65L262.087 456.909C261.57 456.937 260.907 457.117 260.843 457.731C260.815 458.006 260.93 458.269 261.041 458.512C261.464 459.431 261.915 460.388 262.647 460.967C263.378 461.547 264.48 461.603 265.049 460.804C265.245 460.53 265.36 460.186 265.474 459.844C265.614 459.424 265.753 459.007 266.04 458.726C266.23 458.54 266.462 458.438 266.695 458.336L266.695 458.336C266.872 458.258 267.051 458.18 267.211 458.064C267.582 457.795 267.818 457.098 267.474 456.782C267.313 456.634 267.091 456.639 266.888 456.65ZM224.803 457.412C225.469 457.925 225.874 459.056 225.446 459.854C224.934 460.811 224.295 461.865 223.35 461.977C222.132 462.121 221.259 460.652 220.666 459.37C220.464 458.934 220.255 458.451 220.33 457.961C220.487 456.93 221.638 456.737 222.512 456.789C223.304 456.836 224.136 456.898 224.803 457.412ZM288.671 448.366C289.39 448.437 290.034 447.854 290.538 447.238C292.075 445.357 293.052 442.834 293.259 440.214C292.75 439.825 292.128 440.429 291.738 440.98L287.812 446.537C287.346 447.196 287.953 448.295 288.671 448.366ZM211.775 436.015C210.746 436.68 209.338 436.337 208.608 435.244C207.879 434.151 207.91 432.432 208.679 431.378C208.786 431.232 208.913 431.092 209.072 431.053C209.303 430.996 209.526 431.162 209.72 431.321L211.63 432.879C212.07 433.238 212.548 433.664 212.641 434.292C212.746 434.998 212.301 435.674 211.775 436.015ZM265.133 423.706C265.897 424.473 267.03 423.68 267.788 422.904L270.257 420.379C269.792 419.847 269.047 419.967 268.416 420.123L262.919 421.483L265.133 423.706ZM153.996 365.835C153.435 365.238 153.291 364.261 153.274 363.362C153.255 362.348 153.354 361.33 153.568 360.349L157.212 366.026C157.429 366.365 157.608 366.947 157.287 367.133C156.831 366.768 156.271 366.664 155.714 366.561C155.085 366.444 154.46 366.328 153.996 365.835ZM293.909 412.947C294.37 413.634 295.341 413.486 295.87 412.872C296.399 412.258 296.594 411.351 296.746 410.488C296.783 410.28 296.816 410.056 296.744 409.863C296.559 409.371 295.95 409.519 295.541 409.747C294.443 410.36 293.15 411.816 293.909 412.947ZM252.675 161.93C253.121 160.597 254.159 159.697 255.182 158.945C258.267 156.677 261.692 155.076 265.245 154.241C266.095 154.041 267.108 153.943 267.698 154.703C268.362 155.557 268.03 157.034 267.293 157.797C266.637 158.477 265.772 158.756 264.928 159.029L264.764 159.082L264.704 159.102L264.618 159.13C261.777 160.072 259.104 161.734 256.828 163.976C255.952 164.838 254.915 165.853 253.823 165.49C252.667 165.106 252.229 163.263 252.675 161.93ZM188.771 162.242C187.946 161.707 187.389 160.374 187.902 159.434C188.201 158.887 188.757 158.638 189.286 158.478C193.57 157.177 198.004 159.474 201.878 162.018C202.751 162.591 203.648 163.214 204.198 164.207C204.748 165.199 204.828 166.669 204.111 167.494C202.91 168.875 201.007 167.455 199.651 166.298C197.278 164.271 194.426 163.056 191.516 162.833C191.386 162.823 191.256 162.814 191.125 162.806L191.124 162.806C190.31 162.754 189.481 162.702 188.771 162.242ZM233.673 235.743L230.856 226.126C228.348 228.292 226.473 231.487 225.623 235.045C224.853 234.296 224.824 233.029 224.796 231.785C224.788 231.413 224.78 231.043 224.752 230.69C224.585 228.593 223.485 226.636 221.925 225.661C220.366 224.686 218.395 224.724 216.862 225.759C217.269 226.824 218.226 227.162 219.212 227.51C219.867 227.741 220.534 227.976 221.06 228.432C222.172 229.394 222.491 231.207 222.508 232.849C222.512 233.26 222.503 233.675 222.494 234.09V234.09C222.468 235.331 222.442 236.573 222.765 237.741C222.87 238.118 223.018 238.494 223.273 238.748C223.996 239.467 225.09 238.869 225.822 238.163C227.475 236.568 228.776 234.453 229.556 232.088C230.244 232.911 230.499 234.067 230.751 235.214L230.751 235.215C230.825 235.551 230.899 235.887 230.984 236.213C231.357 237.652 232.249 239.189 233.506 239.12C234.344 239.073 235.019 238.318 235.612 237.609L239.021 233.533C239.432 233.042 239.877 232.418 239.745 231.741C239.618 231.091 238.975 230.743 238.423 230.837C237.871 230.93 237.399 231.346 236.967 231.768C235.757 232.95 234.65 234.285 233.673 235.743ZM225.887 197.165C226.069 195.402 226.169 193.348 225.087 192.133C223.068 189.865 221.299 187.277 219.842 184.459C219.207 183.23 218.61 181.794 218.913 180.395C219.371 178.281 221.517 177.517 223.328 177.253C226.224 176.831 229.157 176.759 232.065 177.04C233.315 177.16 234.64 177.385 235.597 178.355C236.553 179.326 236.898 181.293 235.975 182.309C231.449 187.288 228.8 194.623 228.868 201.98C230.546 203.283 232.252 204.603 234.163 205.308C236.075 206.013 238.254 206.036 239.979 204.822C240.705 204.311 241.314 203.612 241.924 202.911C242.346 202.427 242.768 201.943 243.229 201.519C244.36 200.482 245.977 199.839 247.188 200.736L242.581 205.813C240.745 207.836 238.465 210.012 236.035 209.331C235.23 209.106 234.524 208.585 233.815 208.062C233.393 207.751 232.97 207.439 232.525 207.188C230.145 205.848 227.353 206.349 224.782 207.009C224.689 207.033 224.596 207.057 224.503 207.081L224.311 207.131C221.885 207.76 219.374 208.412 216.992 207.63C214.456 206.797 212.231 203.642 213.025 200.641C214.621 203.438 217.401 205.21 220.231 205.236C221.318 205.246 222.438 204.997 223.339 204.269C225.181 202.778 225.614 199.807 225.887 197.165Z" fill="#00160A"/>
</svg>
