<svg xmlns="http://www.w3.org/2000/svg" viewBox="0 0 551.82 262.07"><defs><style>.cls-1{fill:#8c5039;}.cls-2{fill:#fff;}.cls-3{fill:#f9c37b;}.cls-4{fill:#c9c8b5;}</style></defs><g id="layer_2"><g id="layer1-2"><path class="cls-1" d="M119.19,259.51a2.87,2.87,0,0,1-2.82-2.82V226.27a2.87,2.87,0,0,1,2.82-2.82h8.13q13.73,0,13.73,10.91,0,5.69-3.71,8.58t-9.83,2.89h-5.06a.34.34,0,0,0-.39.38v10.48a2.76,2.76,0,0,1-.81,2,2.68,2.68,0,0,1-2,.84ZM122.06,241c0,.23.13.34.39.34H127c2.87,0,5-.57,6.41-1.7a6.33,6.33,0,0,0,2.1-5.23q0-3.5-2.13-4.91c-1.42-.94-3.62-1.41-6.62-1.41h-4.3c-.26,0-.39.12-.39.34Z"/><path class="cls-1" d="M163.68,260.13a12.69,12.69,0,0,1-9.42-3.78q-3.72-3.78-3.73-10.28a16.67,16.67,0,0,1,1-5.88,13.16,13.16,0,0,1,2.75-4.52,12.93,12.93,0,0,1,3.92-2.8,10.94,10.94,0,0,1,4.59-1,9.93,9.93,0,0,1,8.13,3.47q2.88,3.47,2.87,9.34v0a2.69,2.69,0,0,1-.95,2,3.15,3.15,0,0,1-2.16.81H156.42c-.23,0-.32.13-.29.39a8.82,8.82,0,0,0,2.6,5.76,8,8,0,0,0,5.67,2.08,11.4,11.4,0,0,0,4.64-1,2.13,2.13,0,0,1,1-.24,1.88,1.88,0,0,1,.57.09,2.07,2.07,0,0,1,1.24,1,2.2,2.2,0,0,1,.24,1,2.9,2.9,0,0,1-.05.58,1.86,1.86,0,0,1-1,1.19A15.68,15.68,0,0,1,163.68,260.13Zm-7.6-16.78c0,.19.1.28.29.28h12.24a.29.29,0,0,0,.33-.33,8.17,8.17,0,0,0-1.62-5.17,5.43,5.43,0,0,0-4.4-1.81,6.27,6.27,0,0,0-4.45,1.81A7.19,7.19,0,0,0,156.08,243.35Z"/><path class="cls-1" d="M194.07,260.13q-4.35,0-6.27-2.46t-1.91-7V237.46a.34.34,0,0,0-.38-.38h-1.44a2,2,0,0,1-1.5-.62A2.05,2.05,0,0,1,182,235a2.21,2.21,0,0,1,.6-1.56,2.1,2.1,0,0,1,1.5-.69l1.68-.14a.34.34,0,0,0,.38-.39l.43-4.68a2.55,2.55,0,0,1,.84-1.7,2.46,2.46,0,0,1,1.74-.69,2.25,2.25,0,0,1,1.65.69,2.32,2.32,0,0,1,.69,1.7v4.68a.34.34,0,0,0,.39.39h4.4a2.18,2.18,0,0,1,1.57.64,2.1,2.1,0,0,1,.67,1.58,2.16,2.16,0,0,1-.67,1.6,2.13,2.13,0,0,1-1.57.67h-4.4a.34.34,0,0,0-.39.38v13.3a6,6,0,0,0,.94,3.65,3.49,3.49,0,0,0,3,1.22c.25,0,.54,0,.86,0a1.2,1.2,0,0,1,.38-.05,2.42,2.42,0,0,1,1.24.33,1.77,1.77,0,0,1,.91,1.2,1.9,1.9,0,0,1,.1.57,2.29,2.29,0,0,1-.29,1.1,2.05,2.05,0,0,1-1.34,1A15.18,15.18,0,0,1,194.07,260.13Z"/><path class="cls-2" d="M81.92,71.68v41.79c0,11.18,4.6,18,13.67,20.16,25.21,6.12,48.14.92,57-12.95,5.06-7.86,7.74-14.26,8.83-19.62-9.86-4-12.35-8.9-11.58-12.29.64-2.84,3-5,8.22-6.27a65.71,65.71,0,0,0-4.6-6.24C150.13,72,146.93,68,146.32,62.9c-6-49.53-34-54.51-73-56.13-1,0-2-.06-3-.06-17.13,0-33.28,6.15-44.7,17.1C13.25,35.69,6.71,52.55,6.71,72.59v90.8A24.75,24.75,0,0,0,31.43,188.1h9.94a18,18,0,0,0,18-18V71.68c0-9.54,5.67-14.54,11.27-14.54S81.92,62.14,81.92,71.68Z"/><path class="cls-2" d="M197,177.9a2.07,2.07,0,0,1,.37-4.12c.11,0,10.58.84,16.63-5.07a16.74,16.74,0,0,0-1.75-5.6c-6.9,4.57-15.39,4.73-16.44,4.73h-.1a2.07,2.07,0,0,1,0-4.13h0c.39,0,7.91-.06,13.86-3.82-3.47-2.88-9.06-3.72-16.59-2.52a93.44,93.44,0,0,1-12.29,1.91c-2.13.19-4.19.27-6.17.27a62.39,62.39,0,0,1-28.15-6.47,3.36,3.36,0,1,1,3.05-6,56.59,56.59,0,0,0,30.67,5.49,85.51,85.51,0,0,0,11.1-1.7v0l.56-.09c17.07-4,26.82-13.25,29.13-27.63-11.34-3.18-14.66-11.28-5.39-14.89a25,25,0,0,1-6.88-4c-3-2.79-3.35-7-3.78-11.85-.52-5.95-1.17-13.35-6.15-22.49C194,61.14,186,58,178.88,55.21c-5.82-2.28-11.31-4.44-13.65-9.46a31.31,31.31,0,0,1-2.51-11.69c-.06-.86-.13-1.93-.24-2.68-1.58.89-5.7,3.83-13.7,10.62A108.63,108.63,0,0,1,153,62.1c.39,3.21,2.89,6.35,5.78,10,7.74,9.7,18.34,23-.47,52.24-10.62,16.53-35.85,22.74-64.28,15.85-12.12-2.94-18.8-12.42-18.8-26.69V71.68c0-5.14-2.29-7.83-4.55-7.83s-4.55,2.69-4.55,7.83v62.18c0,35.48,17.79,54.24,51.44,54.24h49.38c42.64,0,46.84-9.56,47.27-14.25-5.42,3.61-12,4.11-15.25,4.11C197.84,178,197.13,177.91,197,177.9Z"/><path class="cls-2" d="M290.83,120.61a16.34,16.34,0,0,0-16.32,16.32v4a13.27,13.27,0,0,1-13.25,13.26h0A13.25,13.25,0,0,1,248,140.9V103.38a16.52,16.52,0,0,1,16.53-16.53h20.55A13.87,13.87,0,0,0,298.93,73V69.55a13.88,13.88,0,0,0-13.87-13.88H264.55A16.56,16.56,0,0,1,248,39.12V35.91a26.95,26.95,0,1,0-53.89,0V55.19a32.09,32.09,0,0,1,10.53,11.49c5.65,10.37,6.4,18.89,7,25.12.31,3.62.57,6.49,1.68,7.53a22.2,22.2,0,0,0,5.43,3c4.18,1.86,8.91,4,9.29,8.54,1.2,14.37-2,31.11-19.41,40.82a18.21,18.21,0,0,1,5.49,3.18c4.56,3.86,6.94,10,6.89,17.73a15.91,15.91,0,0,1-3.79,10.64c4.81,3.49,10.64,4.9,19.69,4.9h23.77c29.21,0,44.5-21.34,44.5-42.42V134.9A14.31,14.31,0,0,0,290.83,120.61Z"/><path class="cls-2" d="M394.37,15.27h-.31a11.74,11.74,0,0,0-5.5,1.52c-14.91,8.4-18,19.87-25.89,37.14-6.94,15.23-8.52,25.51-22.23,31.84-2.8,1.29-5.65,2.61-7.29,5.22a11.86,11.86,0,0,0-1.21,10.13,12.22,12.22,0,0,0,9.5,8,26.83,26.83,0,0,0,4.63.45c5.68,0,9.17-2.44,13.8-6.43a3.66,3.66,0,0,1,6.07,2.76v70.94a10.23,10.23,0,0,0,10.24,10.24h2.93a10.23,10.23,0,0,0,10.24-10.24V94.75c0-8.67-1.32-17.28-9.72-20.47,1.74-3.67,3.27-7.34,4.79-10.8C390.35,50,392.12,42.23,400,37.62a12.39,12.39,0,0,0,4.79-4.71,11.9,11.9,0,0,0-10.42-17.64Z"/><ellipse class="cls-2" cx="432.27" cy="53.69" rx="11.19" ry="11.06"/><ellipse class="cls-2" cx="520.6" cy="53.69" rx="11.19" ry="11.06"/><path class="cls-2" d="M535.49,127.24H499.17a11.18,11.18,0,0,1,0-22.36h31.35a9.82,9.82,0,0,0,0-19.63H501.24a11.19,11.19,0,0,1-11.19-11.18V28a12.72,12.72,0,0,0-12.72-12.73h-1.79A12.73,12.73,0,0,0,462.81,28V74.07a11.18,11.18,0,0,1-11.18,11.18H424.41a9.81,9.81,0,0,0-9.81,9.66h0a9.81,9.81,0,0,0,9.81,10H453.7a11.18,11.18,0,1,1,0,22.36H419.44a9.82,9.82,0,1,0,0,19.63h32.19a11.18,11.18,0,0,1,11.18,11.18v17.88A12.17,12.17,0,0,0,475,188.09h2.93a12.16,12.16,0,0,0,12.15-12.16V158.05a11.19,11.19,0,0,1,11.19-11.18h34.25a9.82,9.82,0,1,0,0-19.63Z"/><path class="cls-3" d="M32.64,15.73c22-14,62.8-4.65,83.88,8.26,21.8,13.36,21.79,36.94,21.79,42.67,0,11.34-6.94,12.2-13.71,12.2-6.32,0-16,7.36-17.6,19.67-1.32,10.24-6.9,32.21-16.92,37.22,0,0-9.08-3.05-10.15-10.29s0-59.19,0-59.19-18.06-15-18.06,4v93c0,12-1.06,15.82-21.36,15.82-34.67,0-36-34.57-36-56.07V63.88C4.52,46.74,23.08,21.84,32.64,15.73Z"/><path class="cls-4" d="M65.69,162.66c7.52-15,22.68-18.26,37.45-13.82,9.51,2.86,13.09,10.3,20.43,12.75,12,4,15.82,17.53,3.82,28.08s-40.74-2.38-46-7.12S65.69,162.66,65.69,162.66Z"/><path class="cls-4" d="M162.33,31.38c-12.45.69-15,15.94-16.37,18.4s8.63,27.06,14.3,30.11,5.5,20.69,5.38,23.94,13.33,17.39,44.7,10.88c12.43-2.59,5.25-8.15,1.78-11.19s-7.06-23.46-12.57-32c-3.61-5.6-32-11.21-38.21-21.18C157.34,43.9,157.19,40.5,162.33,31.38Z"/><path class="cls-3" d="M214.93,14.22C195.05,14.22,193,28.7,193,36V59.27s13.5,5.6,13.5,14.54,1,24.88,4.47,28.32,13.87,5,13.87,15.29-9.12,29-16.11,31.89,5.51,8.45,7.57,12.67,2.79,16-2.59,21.36,10.18,9.49,25.21,9.49c52.21,0,49-4,59.07-20.23,19-30.66-17.85-58.25-27.69-37.34-4.88,9.21-6.86,20.79-13.45,14.2s-8.59-17.14-8.59-33,.35-26.29,16.7-26.29,34.23,6.12,34.23-9.44c0-10-5-17.95-20.72-17.95H255.85c-8.3,0-16.21-8.77-16.21-15.91V36.05C239.64,25.71,230.37,14.22,214.93,14.22Z"/><path class="cls-3" d="M531.36,131.37H495a11.17,11.17,0,0,1-11.18-11.18h0a11.16,11.16,0,0,1,5.62-9.69,11.16,11.16,0,0,1,9.69-5.62h31.35a9.82,9.82,0,0,0,4.55-1.12,9.65,9.65,0,0,0,1.13-4.41,9.81,9.81,0,0,0-9.81-10H497.1A11.19,11.19,0,0,1,485.92,78.2V32.13A12.72,12.72,0,0,0,473.2,19.4h-1.79a12.71,12.71,0,0,0-6.69,1.91A12.71,12.71,0,0,0,462.81,28V74.07a11.16,11.16,0,0,1-5.62,9.69,11.16,11.16,0,0,1-9.69,5.62H420.28a9.82,9.82,0,0,0-4.55,1.12,9.65,9.65,0,0,0-1.13,4.41h0a9.81,9.81,0,0,0,9.81,10H453.7a11.17,11.17,0,0,1,5.56,20.87,11.16,11.16,0,0,1-9.69,5.62H415.31a9.71,9.71,0,0,0-4.56,1.13,9.71,9.71,0,0,0-1.13,4.56,9.82,9.82,0,0,0,9.82,9.81h32.19a11.18,11.18,0,0,1,11.18,11.18v17.88A12.17,12.17,0,0,0,475,188.09h2.93a12.1,12.1,0,0,0,6.27-1.76,12.13,12.13,0,0,0,1.75-6.27V162.19a11.19,11.19,0,0,1,5.62-9.7,11.19,11.19,0,0,1,9.7-5.62h34.25a9.83,9.83,0,0,0,4.56-1.12,9.81,9.81,0,0,0-8.69-14.38Z"/><path class="cls-4" d="M398.8,21.8c-1.61-2.86-5.82-5.43-11.55-4.23-13.79,8.32-16.95,19.62-24.58,36.37-6.94,15.23-8.52,25.51-22.23,31.84-2.8,1.29-5.65,2.61-7.29,5.22a11.86,11.86,0,0,0-1.21,10.13,12.22,12.22,0,0,0,9.5,8c8.67,1.56,12.67-1,18.43-6a3.67,3.67,0,0,1,6.07,2.76v70.94a10.23,10.23,0,0,0,10.24,10.24h2.93a12.09,12.09,0,0,0,1.21-.07,10.24,10.24,0,0,0,2.84-7.07V97.85c0-10.88-2.6-15.56-11-18.75,1.73-3.67,4.53-9.06,6.05-12.52C384.16,53.05,386.17,42,397,33.84,400.4,31.28,400.8,25.35,398.8,21.8Z"/><path class="cls-3" d="M432.27,42.63a11.17,11.17,0,0,0-4.9,1.13,10.87,10.87,0,0,0-2.28,6.68A11.12,11.12,0,0,0,436.27,61.5a11.31,11.31,0,0,0,4.9-1.13,10.92,10.92,0,0,0,2.29-6.68A11.12,11.12,0,0,0,432.27,42.63Z"/><path class="cls-3" d="M520.6,42.63a11.18,11.18,0,0,0-4.91,1.13,10.93,10.93,0,0,0-2.28,6.68A11.12,11.12,0,0,0,524.59,61.5a11.38,11.38,0,0,0,4.91-1.13,11,11,0,0,0,2.28-6.68A11.12,11.12,0,0,0,520.6,42.63Z"/><path class="cls-1" d="M290.83,113.89a23.06,23.06,0,0,0-23,23v4a6.56,6.56,0,0,1-6.54,6.55h0a6.54,6.54,0,0,1-6.54-6.54V103.38a9.83,9.83,0,0,1,9.82-9.82h20.55A20.6,20.6,0,0,0,305.64,73V69.56A20.57,20.57,0,0,0,285.06,49H264.55a9.85,9.85,0,0,1-9.84-9.84V35.91a33.66,33.66,0,1,0-67.31,0V51.48c-2.08-.95-4.13-1.76-6.07-2.52-4.73-1.86-8.81-3.46-10-6.05a25.06,25.06,0,0,1-1.89-9.29c-.22-3.19-.42-6.19-2.68-8a6.15,6.15,0,0,0-5-1.09c-1.06.17-3.21.52-15.45,10.79-4.54-10.54-11.12-18.35-20-23.83C113,3.27,95.61,1,73.58.07,53.54-.76,34.37,6.13,21,19,7.26,32.14,0,50.68,0,72.59v90.8a31.46,31.46,0,0,0,31.43,31.42h9.94a24.76,24.76,0,0,0,24.74-24.73V167c8.88,18.12,26.4,27.78,51.44,27.78h49.38c21.65,0,36.34-2.32,44.87-7.28,6.27,5.15,13.71,7.28,25.06,7.28h23.77c33.26,0,51.21-25.31,51.21-49.13V134.9A21,21,0,0,0,290.83,113.89ZM59.39,71.68v98.4a18,18,0,0,1-18,18H31.43A24.75,24.75,0,0,1,6.71,163.39V72.59c0-20,6.54-36.9,18.92-48.78C37.05,12.86,53.2,6.71,70.33,6.71c1,0,2,0,3,.06,39,1.62,67.05,6.6,73,56.13.61,5.11,3.81,9.12,7.19,13.36a65.71,65.71,0,0,1,4.6,6.24c-5.27,1.3-7.58,3.43-8.22,6.27-.77,3.39,1.72,8.3,11.58,12.29-1.09,5.36-3.77,11.76-8.83,19.62-8.91,13.87-31.84,19.07-57,12.95-9.07-2.2-13.67-9-13.67-20.16V71.68c0-9.54-5.66-14.54-11.26-14.54S59.39,62.14,59.39,71.68ZM166.93,188.1H117.55c-33.65,0-51.44-18.76-51.44-54.24V71.68c0-5.14,2.29-7.83,4.55-7.83s4.55,2.69,4.55,7.83v41.79c0,14.27,6.68,23.75,18.8,26.69,28.43,6.89,53.66.68,64.28-15.85,18.81-29.26,8.21-42.54.47-52.24-2.89-3.62-5.39-6.76-5.78-10a108.63,108.63,0,0,0-4.2-20.1c8-6.79,12.12-9.73,13.7-10.62.11.75.18,1.82.24,2.68a31.31,31.31,0,0,0,2.51,11.69c2.34,5,7.83,7.18,13.65,9.46C186,58,194,61.14,198.75,69.89c5,9.14,5.63,16.54,6.15,22.49.43,4.86.79,9.06,3.78,11.85a25,25,0,0,0,6.88,4c-9.27,3.61-5.95,11.71,5.39,14.89-2.31,14.38-12.06,23.63-29.13,27.63l-.56.09v0a85.51,85.51,0,0,1-11.1,1.7,56.59,56.59,0,0,1-30.67-5.49,3.36,3.36,0,1,0-3.05,6,62.39,62.39,0,0,0,28.15,6.47c2,0,4-.08,6.17-.27a93.44,93.44,0,0,0,12.29-1.91c7.53-1.2,13.12-.36,16.59,2.52-6,3.76-13.47,3.82-13.86,3.82h0a2.07,2.07,0,0,0,0,4.13h.1c1.05,0,9.54-.16,16.44-4.73a16.74,16.74,0,0,1,1.75,5.6c-6,5.91-16.52,5.08-16.63,5.07a2.07,2.07,0,0,0-.37,4.12c.12,0,.83.06,1.94.06,3.22,0,9.83-.5,15.25-4.11C213.77,178.54,209.57,188.1,166.93,188.1Zm138.2-42.42c0,21.08-15.29,42.42-44.5,42.42H236.86c-9.05,0-14.88-1.41-19.69-4.9A15.91,15.91,0,0,0,221,172.56c0-7.74-2.33-13.87-6.89-17.73a18.21,18.21,0,0,0-5.49-3.18C226,141.94,229.19,125.2,228,110.83c-.38-4.57-5.11-6.68-9.29-8.54a22.2,22.2,0,0,1-5.43-3c-1.11-1-1.37-3.91-1.68-7.53-.55-6.23-1.3-14.75-7-25.12a32.09,32.09,0,0,0-10.53-11.49V35.91a26.95,26.95,0,0,1,53.89,0v3.21a16.56,16.56,0,0,0,16.55,16.55h20.51a13.88,13.88,0,0,1,13.87,13.88V73a13.87,13.87,0,0,1-13.85,13.83H264.53A16.52,16.52,0,0,0,248,103.38V140.9a13.25,13.25,0,0,0,13.25,13.25h0a13.27,13.27,0,0,0,13.25-13.26v-4a16.34,16.34,0,0,1,16.32-16.32,14.31,14.31,0,0,1,14.3,14.29Z"/><path class="cls-1" d="M122.84,62a6.32,6.32,0,1,0-6.32-6.32A6.32,6.32,0,0,0,122.84,62Z"/><path class="cls-1" d="M190.71,95.5a6.33,6.33,0,1,0-6.32-6.32A6.32,6.32,0,0,0,190.71,95.5Z"/><path class="cls-1" d="M390.37,66.1c1.18-2.67,2.2-5.15,3.1-7.33,3.8-9.19,5.52-13,9.81-15.53A18.62,18.62,0,0,0,410.52,36,18.39,18.39,0,0,0,394.37,8.77h-.73a18.34,18.34,0,0,0-8.28,2.35c-14.65,8.26-19.44,19.21-25.5,33.09-1,2.25-2,4.58-3.11,7-1.4,3.06-2.6,6-3.65,8.52-4.29,10.37-6.65,16.08-15.39,20.11-3.29,1.52-7.39,3.41-10.07,7.67a18.37,18.37,0,0,0-1.87,15.65,18.66,18.66,0,0,0,14.52,12.3,32.86,32.86,0,0,0,5.78.56,22.57,22.57,0,0,0,13.36-4.31v65.07a16.77,16.77,0,0,0,16.75,16.75h2.93a16.77,16.77,0,0,0,16.75-16.75V94.75c0-4.82,0-16.25-7.92-23L389.12,69Zm-1,28.65v82.06a10.23,10.23,0,0,1-10.24,10.24h-2.93a10.23,10.23,0,0,1-10.24-10.24V105.87a3.66,3.66,0,0,0-6.07-2.76c-4.63,4-8.12,6.43-13.8,6.43a26.83,26.83,0,0,1-4.63-.45,12.22,12.22,0,0,1-9.5-8A11.86,11.86,0,0,1,333.15,91c1.64-2.61,4.49-3.93,7.29-5.22,13.71-6.33,15.29-16.61,22.23-31.84,7.86-17.27,11-28.74,25.89-37.14a11.74,11.74,0,0,1,5.5-1.52h.31a11.9,11.9,0,0,1,10.42,17.64A12.39,12.39,0,0,1,400,37.62c-7.88,4.61-9.65,12.34-15.58,25.87-1.52,3.45-3.05,7.12-4.79,10.79C388,77.48,389.35,86.08,389.35,94.75Z"/><path class="cls-1" d="M432.27,71.26a17.57,17.57,0,1,0-17.69-17.57A17.65,17.65,0,0,0,432.27,71.26Zm0-28.63a11.06,11.06,0,1,1-11.18,11.06A11.12,11.12,0,0,1,432.27,42.63Z"/><path class="cls-1" d="M520.6,71.26a17.57,17.57,0,1,0-17.7-17.57A17.65,17.65,0,0,0,520.6,71.26Zm0-28.63a11.06,11.06,0,1,1-11.19,11.06A11.12,11.12,0,0,1,520.6,42.63Z"/><path class="cls-1" d="M535.49,120.74H499.17a4.68,4.68,0,1,1,0-9.35h31.35a16.4,16.4,0,0,0,16.32-16.08,16.32,16.32,0,0,0-16.32-16.57H501.24a4.68,4.68,0,0,1-4.68-4.67V28A19.26,19.26,0,0,0,477.33,8.76h-1.79A19.25,19.25,0,0,0,456.31,28V74.07a4.68,4.68,0,0,1-4.68,4.67H424.41a16.33,16.33,0,0,0-11.63,27.78,16.23,16.23,0,0,0,11.63,4.87H453.7a4.68,4.68,0,0,1,0,9.35H419.44a16.32,16.32,0,1,0,0,32.64h32.19a4.68,4.68,0,0,1,4.68,4.67v17.88A18.68,18.68,0,0,0,475,194.59h2.93a18.68,18.68,0,0,0,18.66-18.66V158.05a4.68,4.68,0,0,1,4.68-4.67h34.25a16.32,16.32,0,1,0,0-32.64Zm0,26.13H501.24a11.19,11.19,0,0,0-11.19,11.18v17.88a12.16,12.16,0,0,1-12.15,12.16H475a12.17,12.17,0,0,1-12.16-12.16V158.05a11.18,11.18,0,0,0-11.18-11.18H419.44a9.82,9.82,0,1,1,0-19.63H453.7a11.18,11.18,0,1,0,0-22.36H424.41a9.81,9.81,0,0,1-9.81-10h0a9.81,9.81,0,0,1,9.81-9.66h27.22a11.18,11.18,0,0,0,11.18-11.18V28a12.73,12.73,0,0,1,12.73-12.73h1.79A12.72,12.72,0,0,1,490.05,28V74.07a11.19,11.19,0,0,0,11.19,11.18h29.28a9.82,9.82,0,0,1,0,19.63H499.17a11.18,11.18,0,0,0,0,22.36h36.32a9.82,9.82,0,1,1,0,19.63Z"/><path class="cls-1" d="M391.27,262.07a10.67,10.67,0,0,1-7.36-3.35.19.19,0,0,0-.12,0,.16.16,0,0,0-.12,0l-.1.58a2.74,2.74,0,0,1-.93,1.53,2.6,2.6,0,0,1-1.7.62,2.22,2.22,0,0,1-2.2-2.2V225.2a2.7,2.7,0,0,1,.81-2,2.73,2.73,0,0,1,2-.81,2.78,2.78,0,0,1,2.8,2.77v7.56l-.15,4.25a.15.15,0,0,0,.1.15.1.1,0,0,0,.14,0c2.65-2.2,5.24-3.3,7.8-3.3a9.27,9.27,0,0,1,7.84,3.73q2.82,3.74,2.82,10c0,4.47-1.14,8-3.42,10.62A10.53,10.53,0,0,1,391.27,262.07Zm-1-4.64a5.86,5.86,0,0,0,4.92-2.58,11.89,11.89,0,0,0,1.92-7.22q0-9.09-6.32-9.09-3,0-6.17,3a.82.82,0,0,0-.23.62v12.43a.76.76,0,0,0,.28.62A8.59,8.59,0,0,0,390.22,257.43Z"/><path class="cls-1" d="M420.79,262.07a7.9,7.9,0,0,1-5.71-2.13,8,8,0,0,1,1.53-12.29q3.75-2.35,12-3.32c.23,0,.34-.13.34-.38q-.24-5.5-5.12-5.5a13.07,13.07,0,0,0-5.93,1.62,1.93,1.93,0,0,1-1.05.29,1.88,1.88,0,0,1-.57-.09,2,2,0,0,1-1.29-1,2.09,2.09,0,0,1-.29-1,3.05,3.05,0,0,1,0-.62,2,2,0,0,1,1.05-1.34,19,19,0,0,1,9-2.44c3.28,0,5.74,1,7.36,3s2.44,4.8,2.44,8.47v13.91a2.21,2.21,0,0,1-.67,1.63,2.25,2.25,0,0,1-1.63.67,2.66,2.66,0,0,1-1.76-.65,2.54,2.54,0,0,1-.91-1.65l-.1-.72a.13.13,0,0,0-.24,0Q425,262.08,420.79,262.07Zm1.72-4.45c1.95,0,4-.95,6.22-2.87a.83.83,0,0,0,.24-.62v-5.88c0-.22-.1-.33-.29-.33h-.05c-3.73.47-6.38,1.2-8,2.17a4.34,4.34,0,0,0-2.37,3.8,3.38,3.38,0,0,0,1.15,2.82A4.79,4.79,0,0,0,422.51,257.62Z"/><path class="cls-1" d="M452.23,260.63a2.7,2.7,0,0,1-2,.82,2.78,2.78,0,0,1-2.79-2.77V236.82a2.27,2.27,0,0,1,2.29-2.29,2.59,2.59,0,0,1,1.75.64,2.4,2.4,0,0,1,.83,1.65l.15,1.34c0,.07.07.1.12.1a.21.21,0,0,0,.12,0,19.65,19.65,0,0,1,4.23-3.25,9.3,9.3,0,0,1,4.61-1.15q8.28,0,8.27,10.71v14.11a2.72,2.72,0,0,1-.81,2,2.66,2.66,0,0,1-2,.82,2.73,2.73,0,0,1-2-.82,2.67,2.67,0,0,1-.84-2V245.19c0-2.33-.36-4-1.07-5a4,4,0,0,0-3.47-1.5,6.12,6.12,0,0,0-3.11.79,16.85,16.85,0,0,0-3.25,2.6,1,1,0,0,0-.24.62v16A2.66,2.66,0,0,1,452.23,260.63Z"/><path class="cls-1" d="M483.68,237.18a1.73,1.73,0,0,1-.45-1.31l.81-9.57a3.09,3.09,0,0,1,1-2,3,3,0,0,1,2.06-.76,2.27,2.27,0,0,1,1.81.86,2.2,2.2,0,0,1,.58,1.48,2.37,2.37,0,0,1-.05.43l-.48,2.82L487.2,236a2.46,2.46,0,0,1-.81,1.29,2.31,2.31,0,0,1-1.44.48A1.64,1.64,0,0,1,483.68,237.18Z"/></g></g></svg>
